<svg xmlns="http://www.w3.org/2000/svg" xmlns:xlink="http://www.w3.org/1999/xlink" width="64" zoomAndPan="magnify" viewBox="0 0 48 48" height="64" preserveAspectRatio="xMidYMid meet" version="1.0"><defs><g/><clipPath id="5e61b06605"><path d="M 0.488281 0.445312 L 47.507812 0.445312 L 47.507812 47.019531 L 0.488281 47.019531 Z M 0.488281 0.445312 " clip-rule="nonzero"/></clipPath><clipPath id="0e0c9df3ca"><path d="M 24 0.445312 C 11.015625 0.445312 0.488281 10.972656 0.488281 23.957031 C 0.488281 36.941406 11.015625 47.464844 24 47.464844 C 36.984375 47.464844 47.511719 36.941406 47.511719 23.957031 C 47.511719 10.972656 36.984375 0.445312 24 0.445312 Z M 24 0.445312 " clip-rule="nonzero"/></clipPath></defs><g clip-path="url(#5e61b06605)"><g clip-path="url(#0e0c9df3ca)"><path fill="#ffffff" d="M 0.488281 0.445312 L 47.511719 0.445312 L 47.511719 47.464844 L 0.488281 47.464844 Z M 0.488281 0.445312 " fill-opacity="1" fill-rule="nonzero"/></g></g><g fill="#d1bc85" fill-opacity="1"><g transform="translate(7.698979, 40.995611)"><g><path d="M 24.09375 -17.8125 C 26.101562 -17.382812 27.71875 -16.382812 28.9375 -14.8125 C 30.15625 -13.25 30.765625 -11.460938 30.765625 -9.453125 C 30.765625 -6.546875 29.75 -4.242188 27.71875 -2.546875 C 25.695312 -0.847656 22.875 0 19.25 0 L 3.0625 0 L 3.0625 -34.734375 L 18.703125 -34.734375 C 22.234375 -34.734375 24.992188 -33.921875 26.984375 -32.296875 C 28.984375 -30.679688 29.984375 -28.488281 29.984375 -25.71875 C 29.984375 -23.675781 29.445312 -21.976562 28.375 -20.625 C 27.300781 -19.269531 25.875 -18.332031 24.09375 -17.8125 Z M 11.53125 -20.671875 L 17.0625 -20.671875 C 18.445312 -20.671875 19.507812 -20.976562 20.25 -21.59375 C 21 -22.207031 21.375 -23.109375 21.375 -24.296875 C 21.375 -25.472656 21 -26.375 20.25 -27 C 19.507812 -27.632812 18.445312 -27.953125 17.0625 -27.953125 L 11.53125 -27.953125 Z M 17.765625 -6.828125 C 19.179688 -6.828125 20.273438 -7.144531 21.046875 -7.78125 C 21.828125 -8.425781 22.21875 -9.363281 22.21875 -10.59375 C 22.21875 -11.8125 21.8125 -12.765625 21 -13.453125 C 20.1875 -14.148438 19.070312 -14.5 17.65625 -14.5 L 11.53125 -14.5 L 11.53125 -6.828125 Z M 17.765625 -6.828125 "/></g></g></g></svg>